<?xml version="1.0" encoding="UTF-8" standalone="no"?><svg xmlns="http://www.w3.org/2000/svg" xmlns:xlink="http://www.w3.org/1999/xlink" contentScriptType="application/ecmascript" contentStyleType="text/css" height="645px" preserveAspectRatio="none" style="width:622px;height:645px;" version="1.1" viewBox="0 0 622 645" width="622px" zoomAndPan="magnify"><defs><filter height="300%" id="f2bv8im14fzqv" width="300%" x="-1" y="-1"><feGaussianBlur result="blurOut" stdDeviation="2.0"/><feColorMatrix in="blurOut" result="blurOut2" type="matrix" values="0 0 0 0 0 0 0 0 0 0 0 0 0 0 0 0 0 0 .4 0"/><feOffset dx="4.0" dy="4.0" in="blurOut2" result="blurOut3"/><feBlend in="SourceGraphic" in2="blurOut3" mode="normal"/></filter></defs><g><text fill="#000000" font-family="sans-serif" font-size="18" lengthAdjust="spacing" textLength="182" x="217.5" y="28.708">EOSS PUT Sequence</text><line style="stroke:#A80036;stroke-width:1.0;stroke-dasharray:5.0,5.0;" x1="24" x2="24" y1="123.25" y2="560.9766"/><line style="stroke:#A80036;stroke-width:1.0;stroke-dasharray:5.0,5.0;" x1="249" x2="249" y1="123.25" y2="560.9766"/><line style="stroke:#A80036;stroke-width:1.0;stroke-dasharray:5.0,5.0;" x1="482" x2="482" y1="123.25" y2="560.9766"/><line style="stroke:#A80036;stroke-width:1.0;stroke-dasharray:5.0,5.0;" x1="576" x2="576" y1="123.25" y2="560.9766"/><text fill="#000000" font-family="sans-serif" font-size="14" lengthAdjust="spacing" textLength="32" x="5" y="119.9482">User</text><ellipse cx="24" cy="49.9531" fill="#FEFECE" filter="url(#f2bv8im14fzqv)" rx="8" ry="8" style="stroke:#A80036;stroke-width:2.0;"/><path d="M24,57.9531 L24,84.9531 M11,65.9531 L37,65.9531 M24,84.9531 L11,99.9531 M24,84.9531 L37,99.9531 " fill="none" filter="url(#f2bv8im14fzqv)" style="stroke:#A80036;stroke-width:2.0;"/><text fill="#000000" font-family="sans-serif" font-size="14" lengthAdjust="spacing" textLength="32" x="5" y="572.9717">User</text><ellipse cx="24" cy="586.2734" fill="#FEFECE" filter="url(#f2bv8im14fzqv)" rx="8" ry="8" style="stroke:#A80036;stroke-width:2.0;"/><path d="M24,594.2734 L24,621.2734 M11,602.2734 L37,602.2734 M24,621.2734 L11,636.2734 M24,621.2734 L37,636.2734 " fill="none" filter="url(#f2bv8im14fzqv)" style="stroke:#A80036;stroke-width:2.0;"/><rect fill="#FEFECE" filter="url(#f2bv8im14fzqv)" height="30.2969" style="stroke:#A80036;stroke-width:1.5;" width="146" x="174" y="87.9531"/><text fill="#000000" font-family="sans-serif" font-size="14" lengthAdjust="spacing" textLength="132" x="181" y="107.9482">EOSS Service Layer</text><rect fill="#FEFECE" filter="url(#f2bv8im14fzqv)" height="30.2969" style="stroke:#A80036;stroke-width:1.5;" width="146" x="174" y="559.9766"/><text fill="#000000" font-family="sans-serif" font-size="14" lengthAdjust="spacing" textLength="132" x="181" y="579.9717">EOSS Service Layer</text><rect fill="#FEFECE" filter="url(#f2bv8im14fzqv)" height="30.2969" style="stroke:#A80036;stroke-width:1.5;" width="92" x="434" y="87.9531"/><text fill="#000000" font-family="sans-serif" font-size="14" lengthAdjust="spacing" textLength="78" x="441" y="107.9482">ZooKeeper</text><rect fill="#FEFECE" filter="url(#f2bv8im14fzqv)" height="30.2969" style="stroke:#A80036;stroke-width:1.5;" width="92" x="434" y="559.9766"/><text fill="#000000" font-family="sans-serif" font-size="14" lengthAdjust="spacing" textLength="78" x="441" y="579.9717">ZooKeeper</text><rect fill="#FEFECE" filter="url(#f2bv8im14fzqv)" height="30.2969" style="stroke:#A80036;stroke-width:1.5;" width="68" x="540" y="87.9531"/><text fill="#000000" font-family="sans-serif" font-size="14" lengthAdjust="spacing" textLength="54" x="547" y="107.9482">Storage</text><rect fill="#FEFECE" filter="url(#f2bv8im14fzqv)" height="30.2969" style="stroke:#A80036;stroke-width:1.5;" width="68" x="540" y="559.9766"/><text fill="#000000" font-family="sans-serif" font-size="14" lengthAdjust="spacing" textLength="54" x="547" y="579.9717">Storage</text><polygon fill="#A80036" points="237,150.3828,247,154.3828,237,158.3828,241,154.3828" style="stroke:#A80036;stroke-width:1.0;"/><line style="stroke:#A80036;stroke-width:1.0;" x1="24" x2="243" y1="154.3828" y2="154.3828"/><text fill="#000000" font-family="sans-serif" font-size="13" lengthAdjust="spacing" textLength="152" x="31" y="149.3169">initiate object uploading</text><line style="stroke:#A80036;stroke-width:1.0;" x1="249" x2="291" y1="183.5156" y2="183.5156"/><line style="stroke:#A80036;stroke-width:1.0;" x1="291" x2="291" y1="183.5156" y2="196.5156"/><line style="stroke:#A80036;stroke-width:1.0;" x1="250" x2="291" y1="196.5156" y2="196.5156"/><polygon fill="#A80036" points="260,192.5156,250,196.5156,260,200.5156,256,196.5156" style="stroke:#A80036;stroke-width:1.0;"/><text fill="#000000" font-family="sans-serif" font-size="13" lengthAdjust="spacing" textLength="168" x="256" y="178.4497">generate object metadata</text><polygon fill="#A80036" points="470,221.6484,480,225.6484,470,229.6484,474,225.6484" style="stroke:#A80036;stroke-width:1.0;"/><line style="stroke:#A80036;stroke-width:1.0;" x1="249" x2="476" y1="225.6484" y2="225.6484"/><text fill="#000000" font-family="sans-serif" font-size="13" lengthAdjust="spacing" textLength="184" x="256" y="220.5825">set metadata with EOF flag 0</text><polygon fill="#A80036" points="260,250.7813,250,254.7813,260,258.7813,256,254.7813" style="stroke:#A80036;stroke-width:1.0;"/><line style="stroke:#A80036;stroke-width:1.0;stroke-dasharray:2.0,2.0;" x1="254" x2="481" y1="254.7813" y2="254.7813"/><text fill="#000000" font-family="sans-serif" font-size="13" lengthAdjust="spacing" textLength="59" x="266" y="249.7153">response</text><polygon fill="#A80036" points="564,279.9141,574,283.9141,564,287.9141,568,283.9141" style="stroke:#A80036;stroke-width:1.0;"/><line style="stroke:#A80036;stroke-width:1.0;" x1="249" x2="570" y1="283.9141" y2="283.9141"/><text fill="#000000" font-family="sans-serif" font-size="13" lengthAdjust="spacing" textLength="160" x="256" y="278.8481">commit 1 write operation</text><polygon fill="#A80036" points="260,309.0469,250,313.0469,260,317.0469,256,313.0469" style="stroke:#A80036;stroke-width:1.0;"/><line style="stroke:#A80036;stroke-width:1.0;stroke-dasharray:2.0,2.0;" x1="254" x2="575" y1="313.0469" y2="313.0469"/><text fill="#000000" font-family="sans-serif" font-size="13" lengthAdjust="spacing" textLength="59" x="266" y="307.981">response</text><polygon fill="#A80036" points="470,338.1797,480,342.1797,470,346.1797,474,342.1797" style="stroke:#A80036;stroke-width:1.0;"/><line style="stroke:#A80036;stroke-width:1.0;" x1="249" x2="476" y1="342.1797" y2="342.1797"/><text fill="#000000" font-family="sans-serif" font-size="13" lengthAdjust="spacing" textLength="209" x="256" y="337.1138">update metadata with EOF flag 1</text><polygon fill="#A80036" points="260,367.3125,250,371.3125,260,375.3125,256,371.3125" style="stroke:#A80036;stroke-width:1.0;"/><line style="stroke:#A80036;stroke-width:1.0;stroke-dasharray:2.0,2.0;" x1="254" x2="481" y1="371.3125" y2="371.3125"/><text fill="#000000" font-family="sans-serif" font-size="13" lengthAdjust="spacing" textLength="59" x="266" y="366.2466">response</text><polygon fill="#A80036" points="564,396.4453,574,400.4453,564,404.4453,568,400.4453" style="stroke:#A80036;stroke-width:1.0;"/><line style="stroke:#A80036;stroke-width:1.0;" x1="249" x2="570" y1="400.4453" y2="400.4453"/><text fill="#000000" font-family="sans-serif" font-size="13" lengthAdjust="spacing" textLength="127" x="256" y="395.3794">commit rest of data</text><polygon fill="#A80036" points="260,425.5781,250,429.5781,260,433.5781,256,429.5781" style="stroke:#A80036;stroke-width:1.0;"/><line style="stroke:#A80036;stroke-width:1.0;stroke-dasharray:2.0,2.0;" x1="254" x2="575" y1="429.5781" y2="429.5781"/><text fill="#000000" font-family="sans-serif" font-size="13" lengthAdjust="spacing" textLength="59" x="266" y="424.5122">response</text><line style="stroke:#A80036;stroke-width:1.0;" x1="249" x2="291" y1="458.7109" y2="458.7109"/><line style="stroke:#A80036;stroke-width:1.0;" x1="291" x2="291" y1="458.7109" y2="471.7109"/><line style="stroke:#A80036;stroke-width:1.0;" x1="250" x2="291" y1="471.7109" y2="471.7109"/><polygon fill="#A80036" points="260,467.7109,250,471.7109,260,475.7109,256,471.7109" style="stroke:#A80036;stroke-width:1.0;"/><text fill="#000000" font-family="sans-serif" font-size="13" lengthAdjust="spacing" textLength="130" x="256" y="453.645">close file descriptors</text><line style="stroke:#A80036;stroke-width:1.0;" x1="249" x2="291" y1="500.8438" y2="500.8438"/><line style="stroke:#A80036;stroke-width:1.0;" x1="291" x2="291" y1="500.8438" y2="513.8438"/><line style="stroke:#A80036;stroke-width:1.0;" x1="250" x2="291" y1="513.8438" y2="513.8438"/><polygon fill="#A80036" points="260,509.8438,250,513.8438,260,517.8438,256,513.8438" style="stroke:#A80036;stroke-width:1.0;"/><text fill="#000000" font-family="sans-serif" font-size="13" lengthAdjust="spacing" textLength="182" x="256" y="495.7778">close ZooKeeper connection</text><polygon fill="#A80036" points="35,538.9766,25,542.9766,35,546.9766,31,542.9766" style="stroke:#A80036;stroke-width:1.0;"/><line style="stroke:#A80036;stroke-width:1.0;stroke-dasharray:2.0,2.0;" x1="29" x2="248" y1="542.9766" y2="542.9766"/><text fill="#000000" font-family="sans-serif" font-size="13" lengthAdjust="spacing" textLength="201" x="41" y="537.9106">return HTTP 201 response code</text><!--MD5=[de719ef2b2b8bd675b5a28e9236da688]
@startuml
title EOSS PUT Sequence

actor User
User -> "EOSS Service Layer": initiate object uploading
"EOSS Service Layer" -> "EOSS Service Layer": generate object metadata
"EOSS Service Layer" -> "ZooKeeper": set metadata with EOF flag 0
"ZooKeeper" - -> "EOSS Service Layer": response
"EOSS Service Layer" -> "Storage": commit 1 write operation
"Storage" - -> "EOSS Service Layer": response
"EOSS Service Layer" -> "ZooKeeper": update metadata with EOF flag 1
"ZooKeeper" - -> "EOSS Service Layer": response
"EOSS Service Layer" -> "Storage": commit rest of data
"Storage" - -> "EOSS Service Layer": response
"EOSS Service Layer" -> "EOSS Service Layer": close file descriptors
"EOSS Service Layer" -> "EOSS Service Layer": close ZooKeeper connection
"EOSS Service Layer" - -> User: return HTTP 201 response code
@enduml

PlantUML version 1.2021.00(Sun Jan 10 02:25:05 PST 2021)
(LGPL source distribution)
Java Runtime: OpenJDK Runtime Environment
JVM: OpenJDK 64-Bit Server VM
Default Encoding: UTF-8
Language: en
Country: US
--></g></svg>